<svg width="35" height="35" viewBox="0 0 35 35" fill="none" xmlns="http://www.w3.org/2000/svg">
<path d="M31.4321 14.4002H30.2772V14.3407H17.3737V20.0756H25.4764C24.2943 23.4141 21.1179 25.8105 17.3737 25.8105C12.623 25.8105 8.7713 21.9588 8.7713 17.2082C8.7713 12.4575 12.623 8.60578 17.3737 8.60578C19.5666 8.60578 21.5616 9.43305 23.0806 10.7843L27.1359 6.72903C24.5753 4.34259 21.1501 2.87086 17.3737 2.87086C9.4559 2.87086 3.03638 9.29039 3.03638 17.2082C3.03638 25.1259 9.4559 31.5455 17.3737 31.5455C25.2914 31.5455 31.711 25.1259 31.711 17.2082C31.711 16.2468 31.612 15.3085 31.4321 14.4002Z" fill="#FFC107"/>
<path d="M4.68945 10.5349L9.39997 13.9894C10.6746 10.8338 13.7614 8.60578 17.3737 8.60578C19.5665 8.60578 21.5616 9.43305 23.0806 10.7843L27.1359 6.72903C24.5753 4.34259 21.1501 2.87086 17.3737 2.87086C11.8667 2.87086 7.09095 5.97991 4.68945 10.5349Z" fill="#FF3D00"/>
<path d="M17.3738 31.5455C21.0771 31.5455 24.4421 30.1282 26.9862 27.8235L22.5488 24.0686C21.061 25.2001 19.243 25.8121 17.3738 25.8106C13.6446 25.8106 10.4782 23.4327 9.28538 20.1144L4.60999 23.7166C6.98281 28.3597 11.8016 31.5455 17.3738 31.5455Z" fill="#4CAF50"/>
<path d="M31.4321 14.4002H30.2772V14.3407H17.3737V20.0756H25.4764C24.9109 21.6645 23.8924 23.0529 22.5466 24.0693L22.5487 24.0678L26.9861 27.8228C26.6721 28.1081 31.711 24.3768 31.711 17.2082C31.711 16.2468 31.612 15.3085 31.4321 14.4002Z" fill="#1976D2"/>
</svg>
