<svg width="650" height="373" viewBox="0 0 650 373" fill="none" xmlns="http://www.w3.org/2000/svg">
<g clip-path="url(#clip0_15_42)">
<path d="M33.9132 372.166C33.8697 371.984 29.6643 353.68 38.2529 338.478C46.8415 323.277 65.1745 316.573 65.3587 316.507L66.1966 316.207L66.3946 317.04C66.438 317.223 70.6435 335.526 62.0549 350.728C53.4667 365.93 35.1332 372.634 34.949 372.7L34.1108 373L33.9132 372.166ZM65.0475 318.241C61.3753 319.749 46.8819 326.347 39.6281 339.186C32.3736 352.026 34.5623 367.211 35.2602 370.966C38.931 369.462 53.4186 362.874 60.6797 350.021C67.9338 337.181 65.7458 321.998 65.0475 318.241Z" fill="#F1F1F1"/>
<path d="M55.4916 345.396C40.0575 354.259 34.1133 371.862 34.1133 371.862C34.1133 371.862 53.1928 375.097 68.6269 366.234C84.061 357.371 90.0052 339.768 90.0052 339.768C90.0052 339.768 70.9257 336.533 55.4916 345.396Z" fill="#F1F1F1"/>
<path d="M289.222 203.321C289.457 202.161 289.423 200.967 289.122 199.821C288.822 198.675 288.261 197.607 287.481 196.69C286.701 195.773 285.719 195.031 284.606 194.516C283.492 194 282.274 193.724 281.037 193.707L273.889 176.552L261.907 178.155L272.357 202.246C272.464 204.231 273.331 206.111 274.793 207.528C276.255 208.945 278.21 209.8 280.289 209.933C282.368 210.065 284.425 209.466 286.072 208.247C287.718 207.028 288.839 205.276 289.222 203.321Z" fill="#9F616A"/>
<path d="M267.147 197.293L263.434 188.843L240.298 146.81L241.556 69.0337L241.798 69.0031C256.602 67.1363 266.618 132.24 267.037 135.013L281.655 182.729L285.135 193.246L267.147 197.293Z" fill="#6C63FF"/>
<path d="M231.597 361.297L242.846 361.297L248.197 319.885L231.595 319.886L231.597 361.297Z" fill="#9F616A"/>
<path d="M228.728 357.792L250.881 357.791H250.882C254.626 357.791 258.217 359.211 260.864 361.738C263.512 364.265 264.999 367.692 265 371.266V371.703L228.728 371.705L228.728 357.792Z" fill="#2F2E41"/>
<path d="M128.167 344.94L137.397 351.078L166.595 320.023L152.973 310.963L128.167 344.94Z" fill="#9F616A"/>
<path d="M127.913 340.498L146.089 352.586L146.09 352.587C149.161 354.63 151.257 357.754 151.915 361.272C152.574 364.79 151.741 368.413 149.601 371.345L149.338 371.705L119.58 351.913L127.913 340.498Z" fill="#2F2E41"/>
<path d="M225.415 351.563L224.929 273.878L217.851 225.03L204.655 267.987L204.629 268.023L156.809 334.284L138.202 325.286L138.304 325.054C139.441 322.473 166.236 261.843 173.438 261.843C174.067 261.885 174.698 261.781 175.275 261.539C175.852 261.297 176.359 260.924 176.752 260.454C178.866 257.76 177.144 252.043 177.127 251.985C175.065 243.825 180.249 241.047 181.281 240.583L184.058 185.867L184.346 185.886L259.632 190.927L256.474 259.335L249.679 348.964L249.446 348.989L225.415 351.563Z" fill="#2F2E41"/>
<path d="M260.782 203.051L260.457 203.025L179.489 196.796L179.689 171.227L183.652 104.464L183.674 104.417L199.813 70.9767L211.253 66.0323L227.945 65.194L227.985 65.2037L243.218 68.8057L259.064 177.375L260.782 203.051Z" fill="#6C63FF"/>
<path d="M230.56 56.6237C240.891 51.2337 244.688 38.8711 239.04 29.011C233.393 19.151 220.44 15.5273 210.109 20.9173C199.779 26.3073 195.982 38.6699 201.629 48.53C207.277 58.3901 220.229 62.0138 230.56 56.6237Z" fill="#9F616A"/>
<path d="M198.895 43.878V35.9504C198.895 35.9504 192.197 28.4209 199.565 26.5243C199.565 26.5243 201.575 7.5574 218.99 16.4086C218.99 16.4086 243.104 12.6152 240.425 25.892C240.425 25.892 246.453 22.4259 244.444 31.2771L240.557 45.5348C240.557 45.5348 242.434 36.1166 236.406 34.8521L233.057 32.9554C233.057 32.9554 223.679 41.8066 209.613 31.0587C209.613 31.0587 203.584 29.6854 204.254 35.3755C204.924 41.0655 198.895 43.878 198.895 43.878Z" fill="#2F2E41"/>
<path d="M218.115 183.956C218.129 182.775 217.871 181.606 217.359 180.53C216.848 179.454 216.096 178.499 215.156 177.731C214.216 176.963 213.111 176.401 211.918 176.084C210.726 175.768 209.476 175.705 208.255 175.9L197.999 160.247L186.512 163.877L201.322 185.787C201.801 187.722 203.007 189.422 204.711 190.566C206.416 191.709 208.501 192.216 210.571 191.991C212.641 191.765 214.552 190.822 215.942 189.342C217.333 187.861 218.106 185.945 218.115 183.956Z" fill="#9F616A"/>
<path d="M191.624 179.022L173.068 143.065L173.084 142.977C173.159 142.579 180.629 102.995 186.341 88.4451C192.09 73.803 199.959 70.8632 200.292 70.7453L200.458 70.6863L207.514 77.1459L197.739 139.413L208.275 169.443L191.624 179.022Z" fill="#6C63FF"/>
<path d="M650 0H614.071V34.2916H650V0Z" fill="#F1F1F1"/>
<path d="M368.82 133.439H332.891V167.731H368.82V133.439Z" fill="#F1F1F1"/>
<path d="M353.057 152.704H637.108V15.4565H353.057V152.704Z" fill="white"/>
<path d="M639.451 154.94H350.714V13.22H639.451V154.94ZM355.4 150.467H634.764V17.6928H355.4V150.467Z" fill="#E5E5E5"/>
<path d="M605.697 63.6003H387.152V70.5177H605.697V63.6003Z" fill="#E5E5E5"/>
<path d="M605.697 80.3756H387.152V87.2929H605.697V80.3756Z" fill="#E5E5E5"/>
<path d="M605.697 105.145H565.082V111.148H605.697V105.145Z" fill="#6C63FF"/>
<path d="M298.364 372.97H0.781057C0.573907 372.97 0.375242 372.891 0.228766 372.752C0.0822891 372.612 0 372.422 0 372.224C0 372.027 0.0822891 371.837 0.228766 371.697C0.375242 371.558 0.573907 371.479 0.781057 371.479H298.364C298.571 371.479 298.769 371.558 298.916 371.697C299.062 371.837 299.145 372.027 299.145 372.224C299.145 372.422 299.062 372.612 298.916 372.752C298.769 372.891 298.571 372.97 298.364 372.97Z" fill="#CBCBCB"/>
</g>
<defs>
<clipPath id="clip0_15_42">
<rect width="650" height="373" fill="white"/>
</clipPath>
</defs>
</svg>
