<svg width="233" height="80" viewBox="0 0 233 80" fill="none" xmlns="http://www.w3.org/2000/svg">
<path d="M101.107 31.08C101.507 31.08 101.627 31.28 101.627 31.64V41.88C101.627 42.32 101.547 42.48 101.067 42.48H98.1866V31.08H101.107ZM92.4266 26V55H98.1866V47.28H103.147C106.387 47.28 107.267 45.6 107.267 43.4V29.52C107.267 27.4 106.107 26 103.827 26H92.4266ZM118.176 31.08C118.576 31.08 118.696 31.28 118.696 31.64V49.32C118.696 49.76 118.616 49.92 118.136 49.92H115.936C115.456 49.92 115.376 49.76 115.376 49.32V31.64C115.376 31.28 115.496 31.08 115.896 31.08H118.176ZM124.576 29.76C124.576 27.48 123.376 26 120.656 26H113.456C110.736 26 109.536 27.48 109.536 29.76V50.88C109.536 53.08 110.456 55 113.696 55H120.416C123.656 55 124.576 53.08 124.576 50.88V29.76ZM135.478 31.08C135.878 31.08 135.998 31.28 135.998 31.64V49.32C135.998 49.76 135.918 49.92 135.438 49.92H132.718V31.08H135.478ZM141.758 29.52C141.758 27.4 140.598 26 138.318 26H126.958V55H137.238C140.558 55 141.758 53.72 141.758 50.52V29.52ZM153.627 29.64L151.627 44.72L149.667 29.72L149.147 26H143.267L148.627 55H154.667L160.027 26H154.147L153.627 29.64ZM161.645 55H172.685L173.685 49.6H167.605V43.28H172.405V38.28H167.605V31.4H173.925L172.925 26H161.645V55ZM184.582 31.08C184.982 31.08 185.142 31.32 185.142 31.68V40.48C185.142 40.92 185.022 41.08 184.582 41.08H181.742V31.08H184.582ZM190.862 29.76C190.862 27.48 189.662 26 186.942 26H175.942V55H181.742V45.76H182.502L185.302 55H191.302L188.262 45.76C189.942 45.76 190.862 44.48 190.862 43.2V29.76ZM201.847 55C205.167 55 206.287 53.8 206.287 50.6V41.04C206.287 38.88 205.247 38.08 203.407 38.08H199.767C199.167 38.08 198.887 37.92 198.887 37.32V32.04C198.887 31.6 199.127 31.4 199.607 31.4H206.167L205.167 26H197.167C194.447 26 193.247 27.48 193.247 29.76V39.6C193.247 42.48 194.767 42.88 196.487 42.88H199.487C200.287 42.88 200.567 42.92 200.567 43.72V49C200.567 49.44 200.407 49.6 199.887 49.6H193.647L194.687 55H201.847ZM208.677 55H219.717L220.717 49.6H214.637V43.28H219.437V38.28H214.637V31.4H220.957L219.957 26H208.677V55Z" fill="#FEBA34"/>
<path d="M22.128 48.4871C21.4218 47.123 20.8035 45.7069 20.273 44.2386C19.7426 42.7703 19.3016 41.2517 18.9501 39.6825H12.0056C13.1434 41.7493 14.566 43.5475 16.2735 45.0769C17.981 46.6063 19.9325 47.7431 22.128 48.4871ZM10.0047 34.7222H18.0084C17.8907 33.8955 17.8021 33.0787 17.7424 32.2718C17.6828 31.465 17.6538 30.6283 17.6553 29.7619C17.6553 28.8939 17.6852 28.0572 17.7448 27.252C17.8044 26.4468 17.8923 25.63 18.0084 24.8016H10.0047C9.80851 25.6283 9.66099 26.4451 9.56212 27.252C9.46325 28.0589 9.4146 28.8955 9.41617 29.7619C9.41617 30.63 9.46561 31.4666 9.56448 32.2718C9.66335 33.0771 9.81008 33.8939 10.0047 34.7222ZM12.0056 19.8413H18.9501C19.3032 18.2705 19.745 16.751 20.2754 15.2827C20.8058 13.8145 21.4234 12.3991 22.128 11.0367C19.9309 11.7808 17.9786 12.9175 16.2712 14.4469C14.5637 15.9764 13.1418 17.7745 12.0056 19.8413ZM23.7759 19.8413H32.7213C32.2504 18.0225 31.6423 16.3071 30.8969 14.695C30.1514 13.0828 29.2686 11.5327 28.2486 10.0447C27.2285 11.5327 26.3457 13.0828 25.6003 14.695C24.8548 16.3071 24.2467 18.0225 23.7759 19.8413ZM37.5471 19.8413H44.4915C43.3537 17.7745 41.9311 15.9764 40.2236 14.4469C38.5161 12.9175 36.5646 11.7808 34.3691 11.0367C35.0753 12.4008 35.6936 13.817 36.2241 15.2852C36.7545 16.7535 37.1955 18.2722 37.5471 19.8413ZM28.2486 54.5635C25.0314 54.5635 21.9907 53.912 19.1266 52.6091C16.2625 51.3062 13.761 49.5288 11.6219 47.2768C9.48444 45.0248 7.79737 42.3901 6.56071 39.3725C5.32405 36.355 4.7065 33.1515 4.70807 29.7619C4.70807 26.331 5.3264 23.1167 6.56306 20.1191C7.79972 17.1214 9.48679 14.4974 11.6243 12.247C13.7617 9.9934 16.2617 8.21595 19.1243 6.91469C21.9868 5.61344 25.0282 4.96198 28.2486 4.96033C31.505 4.96033 34.5558 5.61178 37.4011 6.91469C40.2464 8.2176 42.7369 9.99505 44.8729 12.247C47.0119 14.499 48.699 17.1239 49.9341 20.1215C51.1692 23.1192 51.7875 26.3327 51.7891 29.7619C51.7891 30.1753 51.7789 30.5886 51.7584 31.002C51.738 31.4154 51.709 31.8287 51.6714 32.2421H46.9044C46.9829 31.8287 47.0323 31.4253 47.0527 31.0318C47.0731 30.6382 47.0825 30.215 47.081 29.7619C47.081 28.8939 47.0315 28.0572 46.9327 27.252C46.8338 26.4468 46.687 25.63 46.4924 24.8016H38.4887C38.6064 25.6283 38.695 26.4451 38.7547 27.252C38.8143 28.0589 38.8433 28.8955 38.8418 29.7619V31.0342C38.8418 31.4261 38.8222 31.8287 38.7829 32.2421H34.0748C34.1141 31.8287 34.1337 31.4253 34.1337 31.0318V29.7619C34.1337 28.8939 34.1039 28.0572 34.0442 27.252C33.9846 26.4468 33.8967 25.63 33.7806 24.8016H22.7165C22.5988 25.6283 22.5102 26.4451 22.4505 27.252C22.3909 28.0589 22.3619 28.8955 22.3634 29.7619C22.3634 30.63 22.3933 31.4666 22.4529 32.2718C22.5125 33.0771 22.6004 33.8939 22.7165 34.7222H30.6026V39.6825H23.7759C24.2467 41.5013 24.8548 43.2168 25.6003 44.8289C26.3457 46.441 27.2285 47.9911 28.2486 49.4792C28.6801 48.8178 29.0921 48.1457 29.4844 47.4628C29.8768 46.7799 30.2495 46.088 30.6026 45.3869V54.4395C30.2103 54.4808 29.8281 54.5122 29.4562 54.5337C29.0842 54.5552 28.6817 54.5652 28.2486 54.5635ZM40.0188 45.6969V48.7351C40.0188 49.4378 39.7928 50.0273 39.3408 50.5035C38.8889 50.9797 38.3302 51.2169 37.6648 51.2153C36.9978 51.2153 36.4383 50.978 35.9863 50.5035C35.5343 50.0289 35.3091 49.4395 35.3107 48.7351V39.6825C35.3107 38.9798 35.5367 38.3904 35.9887 37.9142C36.4407 37.438 36.9993 37.2007 37.6648 37.2024H46.257C46.924 37.2024 47.4835 37.4405 47.9355 37.9167C48.3875 38.3929 48.6127 38.9815 48.6111 39.6825C48.6111 40.3853 48.3859 40.9747 47.9355 41.4509C47.4851 41.9271 46.9256 42.1644 46.257 42.1627H43.3145L48.6111 47.7431C49.0427 48.1978 49.2584 48.7665 49.2584 49.4494C49.2584 50.1323 49.0427 50.7209 48.6111 51.2153C48.1403 51.7113 47.5816 51.9593 46.935 51.9593C46.2884 51.9593 45.7289 51.7113 45.2566 51.2153L40.0188 45.6969Z" fill="#FEBA34"/>
<ellipse cx="51.7514" cy="50.2381" rx="28.2486" ry="29.7619" fill="#1F3D53"/>
<path d="M63.5216 65.7391V73.7996H39.9812V65.7391C39.9812 62.3165 45.2542 59.5387 51.7514 59.5387C58.2486 59.5387 63.5216 62.3165 63.5216 65.7391ZM51.7514 34.1171C55.8096 34.1171 59.7015 35.8155 62.5711 38.8388C65.4406 41.8621 67.0527 45.9625 67.0527 50.2381C67.0527 53.3383 66.2288 56.2401 64.7928 58.6954L61.1676 55.2976C61.9209 53.7847 62.3446 52.0486 62.3446 50.2381C62.3446 44.0377 57.6365 39.0774 51.7514 39.0774C45.8663 39.0774 41.1582 44.0377 41.1582 50.2381C41.1582 52.0486 41.5819 53.7847 42.3352 55.2976L38.71 58.6954C37.274 56.2401 36.4501 53.3383 36.4501 50.2381C36.4501 45.9625 38.0622 41.8621 40.9317 38.8388C43.8013 35.8155 47.6932 34.1171 51.7514 34.1171ZM51.7514 24.1964C58.3069 24.1964 64.5939 26.9401 69.2293 31.8239C73.8648 36.7076 76.4689 43.3314 76.4689 50.2381C76.4689 55.8929 74.7505 61.126 71.855 65.3919L68.3239 62.0437C70.4896 58.6707 71.7608 54.6032 71.7608 50.2381C71.7608 44.647 69.6527 39.2849 65.9002 35.3313C62.1477 31.3778 57.0582 29.1568 51.7514 29.1568C46.4446 29.1568 41.3551 31.3778 37.6026 35.3313C33.8501 39.2849 31.742 44.647 31.742 50.2381C31.742 54.6032 33.0132 58.6707 35.1789 62.0437L31.6478 65.3919C28.6428 60.9737 27.0291 55.6736 27.0339 50.2381C27.0339 43.3314 29.638 36.7076 34.2735 31.8239C38.9089 26.9401 45.1959 24.1964 51.7514 24.1964ZM51.7514 44.0377C53.3122 44.0377 54.8091 44.691 55.9128 45.8538C57.0165 47.0166 57.6365 48.5937 57.6365 50.2381C57.6365 51.8826 57.0165 53.4597 55.9128 54.6225C54.8091 55.7853 53.3122 56.4385 51.7514 56.4385C50.1906 56.4385 48.6937 55.7853 47.59 54.6225C46.4863 53.4597 45.8663 51.8826 45.8663 50.2381C45.8663 48.5937 46.4863 47.0166 47.59 45.8538C48.6937 44.691 50.1906 44.0377 51.7514 44.0377Z" fill="#FEBA34"/>
</svg>
